{
    "asset" : {
        "generator" : "Khronos glTF Blender I/O v1.7.17",
        "version" : "2.0"
    },
    "scene" : 0,
    "scenes" : [
        {
            "extras" : {
                "CAPScn" : {
                    "list_switch" : 0,
                    "selection_switch" : 0,
                    "collection_list" : [],
                    "object_list" : [
                        {
                            "object" : {
                                "name" : "Player Ref 180cm",
                                "type" : "Object"
                            },
                            "enable_export" : 1
                        },
                        {
                            "object" : {
                                "name" : "Player Ref 200cm",
                                "type" : "Object"
                            },
                            "enable_export" : 1
                        },
                        {
                            "object" : {
                                "name" : "Player Ref 240cm",
                                "type" : "Object"
                            },
                            "enable_export" : 1
                        },
                        {
                            "object" : {
                                "name" : "Player Ref 150cm",
                                "type" : "Object"
                            },
                            "enable_export" : 1
                        },
                        {
                            "object" : {
                                "name" : "Player Ref 100cm",
                                "type" : "Object"
                            },
                            "enable_export" : 1
                        },
                        {
                            "object" : {
                                "name" : "Chair",
                                "type" : "Object"
                            },
                            "enable_export" : 1
                        },
                        {
                            "object" : {
                                "name" : "Sofa",
                                "type" : "Object"
                            },
                            "enable_export" : 1
                        },
                        {
                            "object" : {
                                "name" : "Wardrobe",
                                "type" : "Object"
                            },
                            "enable_export" : 1
                        }
                    ],
                    "collection_list_index" : -1,
                    "object_list_index" : 5
                },
                "CAPProxy" : {
                    "disable_updates" : 0,
                    "obj_enable_export" : 1,
                    "obj_origin_point" : 0,
                    "obj_location_preset" : 2,
                    "obj_export_preset" : 1,
                    "col_enable_export" : 0,
                    "col_origin_point" : 0,
                    "col_location_preset" : 0,
                    "col_export_preset" : 0,
                    "col_root_object" : null
                },
                "td" : {
                    "density_set" : "1.28",
                    "uv_space" : "4558.8717 %",
                    "density" : "1.275"
                },
                "simple_asset_manager" : {
                    "curr_folder" : "Z:\\Tools\\3D Design\\Blender\\Assets\\Exports\\Level Design Guides",
                    "lib_local" : "",
                    "local_global" : 0,
                    "origin" : 1
                },
                "simple_asset_manager_categories" : {
                    "cat0" : 1
                },
                "whitebox_grid_opacity" : 0.699999988079071,
                "whitebox_emission_strength" : 0.0,
                "blenderkitUI" : {
                    "assetbar_on" : 0,
                    "turn_off" : 0,
                    "asset_type" : 2,
                    "dragging" : 0,
                    "margin" : 0,
                    "thumb_size" : 96,
                    "bar_x" : 21,
                    "bar_end" : 340,
                    "bar_width" : 925,
                    "wcount" : 8,
                    "hcount" : 1,
                    "bar_height" : 96,
                    "bar_y" : 875,
                    "reports_y" : 679,
                    "reports_x" : 21,
                    "rating_x" : 21,
                    "rating_y" : 779,
                    "mouse_x" : 736,
                    "mouse_y" : 948,
                    "has_hit" : 0,
                    "active_index" : -3,
                    "draw_drag_image" : 0,
                    "draw_snapped_bounds" : 0,
                    "draw_tooltip" : 0,
                    "drawoffset" : 35,
                    "tooltip" : "",
                    "drag_init" : 0,
                    "scrolloffset" : 8,
                    "drag_length" : 1,
                    "snapped_location" : [
                        0.28365659713745117,
                        -0.6777777671813965,
                        0.0
                    ],
                    "snapped_normal" : [
                        0.0,
                        0.0,
                        1.0
                    ],
                    "snapped_rotation" : [
                        0.0,
                        -0.0,
                        -3.141592502593994
                    ]
                },
                "vr_landmarks" : [
                    {
                        "type" : 0
                    }
                ],
                "blenderkit_models" : {},
                "uuid" : "521df58b-1e3f-4a3f-8124-15f0c5ee799a",
                "assets reported" : {},
                "blenderkit_mat" : {
                    "is_searching" : 0,
                    "report" : "Found 244 results. ",
                    "search_keywords" : "Wood",
                    "search_error" : 0
                },
                "assets used" : {
                    "22d15f06-1692-45c3-84b8-9046df6bcb0e" : {
                        "thumbnail" : "thumbnail_d5ca44ad-7cb6-4ec8-8df4-292a23962ff7.png.1024x1024_q85_crop-%2C.png",
                        "thumbnail_small" : "thumbnail_d5ca44ad-7cb6-4ec8-8df4-292a23962ff7.png.96x96_q85_crop-%2C.png",
                        "tooltip" : "Old Wood\n\nPhoto-based old wood texture made with\n Substance Designer\n\nfiles size: 49MB 328KB\ntexture size: 1.0m\nlicense: royalty_free\n\nOnly assets with enough ratings \nshow the rating value. Please rate.\n",
                        "downloaded" : 0,
                        "texture_size_meters" : 1.0,
                        "thumbnail_%i" : "thumbnail_d5ca44ad-7cb6-4ec8-8df4-292a23962ff7.png.1024x1024_q85_crop-%2C.png",
                        "url" : "https://www.blenderkit.com/api/v1/assets/11ee2193-0283-43c2-bc57-465970b08bbb/",
                        "id" : "11ee2193-0283-43c2-bc57-465970b08bbb",
                        "assetBaseId" : "22d15f06-1692-45c3-84b8-9046df6bcb0e",
                        "versionNumber" : 1,
                        "author" : {
                            "id" : "5351",
                            "firstName" : "Andrey",
                            "lastName" : "Livintsov",
                            "gravatarHash" : "9852d0dcc2443e359572b84084c37df6",
                            "aboutMe" : "Working as a 3D artist and game developer, I like to create new materials and 3D assets.",
                            "aboutMeUrl" : "https://www.linkedin.com/in/andreylivintsov/"
                        },
                        "name" : "Old Wood",
                        "displayName" : "Old Wood",
                        "description" : "Photo-based old wood texture made with Substance Designer",
                        "assetType" : "material",
                        "category" : "wood",
                        "adult" : 0,
                        "isFree" : 1,
                        "tags" : [
                            "wood",
                            "old",
                            "blackwood",
                            "non-manifold",
                            "uv",
                            "non-manifold",
                            "uv"
                        ],
                        "license" : "royalty_free",
                        "parameters" : [
                            {
                                "parameterType" : "material_style",
                                "value" : "realistic"
                            },
                            {
                                "parameterType" : "engine",
                                "value" : "cycles"
                            },
                            {
                                "parameterType" : "shaders",
                                "value" : ""
                            },
                            {
                                "parameterType" : "animated",
                                "value" : 0
                            },
                            {
                                "parameterType" : "purePbr",
                                "value" : 1
                            },
                            {
                                "parameterType" : "pbrType",
                                "value" : "metallic"
                            },
                            {
                                "parameterType" : "uv",
                                "value" : 1
                            },
                            {
                                "parameterType" : "textureSizeMeters",
                                "value" : 1.0
                            },
                            {
                                "parameterType" : "procedural",
                                "value" : 1
                            },
                            {
                                "parameterType" : "nodeCount",
                                "value" : 0
                            },
                            {
                                "parameterType" : "textureCount",
                                "value" : 0
                            },
                            {
                                "parameterType" : "megapixels",
                                "value" : 0
                            }
                        ],
                        "sourceAppName" : "blender",
                        "sourceAppVersion" : "2.90.1",
                        "addonVersion" : "1.0.31",
                        "created" : "2020-11-01T06:56:29.562715+01:00",
                        "verificationStatus" : "validated",
                        "isPrivate" : 0,
                        "files" : [
                            {
                                "fileType" : "thumbnail",
                                "downloadUrl" : "https://www.blenderkit.com/api/v1/downloads/26675/",
                                "fileThumbnail" : "https://public.blenderkit.com/thumbnails/assets/11ee2193028343c2bc57465970b08bbb/files/thumbnail_d5ca44ad-7cb6-4ec8-8df4-292a23962ff7.png.96x96_q85_crop-%2C.png",
                                "fileThumbnailLarge" : "https://public.blenderkit.com/thumbnails/assets/11ee2193028343c2bc57465970b08bbb/files/thumbnail_d5ca44ad-7cb6-4ec8-8df4-292a23962ff7.png.1024x1024_q85_crop-%2C.png"
                            },
                            {
                                "fileType" : "blend",
                                "downloadUrl" : "https://www.blenderkit.com/api/v1/downloads/26676/",
                                "fileThumbnail" : null,
                                "fileThumbnailLarge" : null,
                                "url" : "https://public.blenderkit.com/public-assets/assets/11ee2193028343c2bc57465970b08bbb/files/blend_e93de564-3cb0-4750-9d7f-2048ec4b6e59.blend",
                                "file_name" : "blend_e93de564-3cb0-4750-9d7f-2048ec4b6e59.blend"
                            }
                        ],
                        "filesSize" : 52156744,
                        "thumbnailSmallUrl" : "https://public.blenderkit.com/thumbnails/assets/11ee2193028343c2bc57465970b08bbb/files/thumbnail_d5ca44ad-7cb6-4ec8-8df4-292a23962ff7.png.256x256_q85_crop-%2C.png",
                        "thumbnailMiddleUrl" : "https://public.blenderkit.com/thumbnails/assets/11ee2193028343c2bc57465970b08bbb/files/thumbnail_d5ca44ad-7cb6-4ec8-8df4-292a23962ff7.png.512x512_q85_crop-%2C.png",
                        "thumbnailLargeUrl" : "https://public.blenderkit.com/thumbnails/assets/11ee2193028343c2bc57465970b08bbb/files/thumbnail_d5ca44ad-7cb6-4ec8-8df4-292a23962ff7.png.1024x1024_q85_crop-%2C.png",
                        "thumbnailXlargeUrl" : "https://public.blenderkit.com/thumbnails/assets/11ee2193028343c2bc57465970b08bbb/files/thumbnail_d5ca44ad-7cb6-4ec8-8df4-292a23962ff7.png.1024x1024_q85_crop-%2C.png",
                        "thumbnailSmallUrlNonsquared" : "https://public.blenderkit.com/thumbnails/assets/11ee2193028343c2bc57465970b08bbb/files/thumbnail_d5ca44ad-7cb6-4ec8-8df4-292a23962ff7.png.256x256_q85.png",
                        "thumbnailMiddleUrlNonsquared" : "https://public.blenderkit.com/thumbnails/assets/11ee2193028343c2bc57465970b08bbb/files/thumbnail_d5ca44ad-7cb6-4ec8-8df4-292a23962ff7.png.512x512_q85.png",
                        "thumbnailLargeUrlNonsquared" : "https://public.blenderkit.com/thumbnails/assets/11ee2193028343c2bc57465970b08bbb/files/thumbnail_d5ca44ad-7cb6-4ec8-8df4-292a23962ff7.png.1024x1024_q85.png",
                        "thumbnailXlargeUrlNonsquared" : "https://public.blenderkit.com/thumbnails/assets/11ee2193028343c2bc57465970b08bbb/files/thumbnail_d5ca44ad-7cb6-4ec8-8df4-292a23962ff7.png.2048x2048_q85.png",
                        "thumbnailSmallWidthNonsquared" : 256,
                        "thumbnailMiddleWidthNonsquared" : 512,
                        "thumbnailLargeWidthNonsquared" : 512,
                        "thumbnailXlargeWidthNonsquared" : 512,
                        "thumbnailXlargeHeightNonsquared" : 512,
                        "showMarketingLabels" : 1,
                        "score" : 214.375,
                        "ratingsAverage" : {
                            "quality" : 8.75,
                            "virtualPrice" : null,
                            "complexity" : null,
                            "workingHours" : 2.45,
                            "virtualPriceAdmin" : null,
                            "complexityAdmin" : null
                        },
                        "ratingsCount" : {
                            "quality" : 4,
                            "virtualPrice" : 0,
                            "complexity" : 0,
                            "workingHours" : 4,
                            "virtualPriceAdmin" : 0,
                            "complexityAdmin" : 0
                        },
                        "canDownload" : 1,
                        "canDownloadError" : 1,
                        "available_resolutions" : [],
                        "max_resolution" : 0,
                        "resolution" : "resolution_1K"
                    }
                },
                "assets rated" : {
                    "22d15f06-1692-45c3-84b8-9046df6bcb0e" : 0
                },
                "NWBusyDrawing" : "",
                "NWLazySource" : "Group.003",
                "NWLazyTarget" : "Group.003"
            },
            "name" : "Scene",
            "nodes" : [
                0
            ]
        }
    ],
    "nodes" : [
        {
            "extras" : {
                "CAPObj" : {
                    "enable_edit" : 1,
                    "enable_export" : 1,
                    "in_export_list" : 1,
                    "location_preset" : 2,
                    "export_preset" : 1
                }
            },
            "mesh" : 0,
            "name" : "Wardrobe"
        }
    ],
    "meshes" : [
        {
            "name" : "Cube.005",
            "primitives" : [
                {
                    "attributes" : {
                        "POSITION" : 0,
                        "NORMAL" : 1,
                        "TEXCOORD_0" : 2
                    },
                    "indices" : 3
                }
            ]
        }
    ],
    "accessors" : [
        {
            "bufferView" : 0,
            "componentType" : 5126,
            "count" : 1396,
            "max" : [
                0.6499999165534973,
                2.2686195373535156,
                0.3499999940395355
            ],
            "min" : [
                -0.6499999761581421,
                3.405936366274176e-10,
                -0.3500000238418579
            ],
            "type" : "VEC3"
        },
        {
            "bufferView" : 1,
            "componentType" : 5126,
            "count" : 1396,
            "type" : "VEC3"
        },
        {
            "bufferView" : 2,
            "componentType" : 5126,
            "count" : 1396,
            "type" : "VEC2"
        },
        {
            "bufferView" : 3,
            "componentType" : 5123,
            "count" : 2208,
            "type" : "SCALAR"
        }
    ],
    "bufferViews" : [
        {
            "buffer" : 0,
            "byteLength" : 16752,
            "byteOffset" : 0
        },
        {
            "buffer" : 0,
            "byteLength" : 16752,
            "byteOffset" : 16752
        },
        {
            "buffer" : 0,
            "byteLength" : 11168,
            "byteOffset" : 33504
        },
        {
            "buffer" : 0,
            "byteLength" : 4416,
            "byteOffset" : 44672
        }
    ],
    "buffers" : [
        {
            "byteLength" : 49088,
            "uri" : "data:application/octet-stream;base64,"
        }
    ]
}
